<svg class="w-[60px] h-[60px] md:w-[100px] md:h-[100px]" width="60" height="60" viewBox="0 0 60 60" fill="none" xmlns="http://www.w3.org/2000/svg">
    <path d="M30.0008 42.8393C28.3633 42.8393 26.7708 42.5174 25.2733 41.8848C23.8262 41.2747 22.5303 40.3986 21.4135 39.2846C20.2995 38.1706 19.4235 36.8719 18.8133 35.4249C18.1807 33.9275 17.8589 32.3376 17.8589 30.6974C17.8589 29.06 18.1808 27.4674 18.8133 25.9699C19.4235 24.5229 20.2995 23.227 21.4135 22.1102C22.5275 20.9962 23.8262 20.1202 25.2733 19.51C26.7707 18.8774 28.3633 18.5583 30.0008 18.5583C31.6382 18.5583 33.2307 18.8802 34.7254 19.5127C36.1725 20.1229 37.4684 20.999 38.5852 22.113C39.6992 23.227 40.5752 24.5257 41.1854 25.9727C41.818 27.4701 42.1398 29.06 42.1398 30.7002C42.1398 32.3376 41.8179 33.9302 41.1854 35.4249C40.5752 36.8719 39.6992 38.1678 38.5852 39.2846C37.4712 40.3986 36.1725 41.2746 34.7254 41.8848C33.2308 42.5174 31.6382 42.8393 30.0008 42.8393ZM30.0008 20.3494C24.2937 20.3494 19.6504 24.9929 19.6504 30.6998C19.6504 36.404 24.2939 41.0472 30.0008 41.0472C35.7076 41.0472 40.3511 36.4037 40.3511 30.6969C40.3511 24.9899 35.7076 20.3494 30.0008 20.3494Z" fill="#C9C2BF"/>
    <path d="M30.0011 15.8962C29.5057 15.8962 29.1055 15.496 29.1055 15.0005V1.14567C29.1055 0.650248 29.5057 0.25 30.0011 0.25C30.4966 0.25 30.8968 0.650248 30.8968 1.14567V15.0005C30.8968 15.4932 30.4966 15.8962 30.0011 15.8962Z" fill="#C9C2BF"/>
    <path d="M24.6328 16.842C24.2662 16.842 23.9247 16.6153 23.7903 16.2514L21.2433 9.25684C21.0753 8.79221 21.3133 8.2772 21.7779 8.10924C22.2425 7.9413 22.7575 8.17922 22.9255 8.64384L25.4725 15.6384C25.6405 16.103 25.4026 16.6181 24.9379 16.786C24.8372 16.8252 24.7336 16.842 24.6328 16.842Z" fill="#C9C2BF"/>
    <path d="M16.4036 23.7443C16.2524 23.7443 16.0985 23.7051 15.9557 23.624L9.50973 19.9014C9.08148 19.6551 8.93594 19.1064 9.18225 18.6782C9.42856 18.25 9.97717 18.1045 10.4054 18.3508L16.8514 22.0734C17.2796 22.3197 17.4252 22.8683 17.1789 23.2965C17.0165 23.5848 16.7142 23.7443 16.4036 23.7443Z" fill="#C9C2BF"/>
    <path d="M7.20862 35.6123C6.78318 35.6123 6.40531 35.3072 6.32693 34.8734C6.24016 34.3864 6.56764 33.9218 7.05464 33.835L14.3848 32.5419C14.8718 32.4551 15.3364 32.7826 15.4232 33.2696C15.5099 33.7566 15.1825 34.2212 14.6955 34.308L7.36533 35.6011C7.31215 35.6095 7.259 35.6123 7.20862 35.6123Z" fill="#C9C2BF"/>
    <path d="M15.1245 49.321C14.9201 49.321 14.7158 49.251 14.5479 49.1111C14.17 48.792 14.1196 48.2294 14.4387 47.8488L19.2249 42.1473C19.544 41.7695 20.1066 41.7191 20.4872 42.0382C20.8651 42.3572 20.9155 42.9199 20.5964 43.3005L15.8102 49.0019C15.6338 49.2119 15.3792 49.321 15.1245 49.321Z" fill="#C9C2BF"/>
    <path d="M30.0011 54.7372C29.5057 54.7372 29.1055 54.337 29.1055 53.8415V46.3961C29.1055 45.9006 29.5057 45.5004 30.0011 45.5004C30.4966 45.5004 30.8968 45.9006 30.8968 46.3961V53.8415C30.8968 54.3342 30.4966 54.7372 30.0011 54.7372Z" fill="#C9C2BF"/>
    <path d="M44.8775 49.321C44.6228 49.321 44.3681 49.2119 44.1917 49.0019L39.4055 43.3005C39.0864 42.9226 39.1368 42.3572 39.5147 42.0382C39.8925 41.7191 40.4579 41.7695 40.777 42.1473L45.5632 47.8488C45.8823 48.2266 45.8319 48.792 45.454 49.1111C45.2833 49.2538 45.0818 49.321 44.8775 49.321Z" fill="#C9C2BF"/>
    <path d="M52.7932 35.6123C52.7429 35.6123 52.6897 35.6067 52.6365 35.5983L45.3064 34.3052C44.8193 34.2184 44.4947 33.7538 44.5787 33.2668C44.6654 32.7797 45.13 32.4551 45.6171 32.539L52.9472 33.8322C53.4342 33.9189 53.7589 34.3836 53.6749 34.8706C53.5965 35.3072 53.2187 35.6123 52.7932 35.6123Z" fill="#C9C2BF"/>
    <path d="M43.5987 23.7443C43.288 23.7443 42.9885 23.5848 42.8234 23.2965C42.5771 22.8683 42.7226 22.3196 43.1508 22.0734L49.5968 18.3508C50.0251 18.1045 50.5737 18.25 50.82 18.6782C51.0662 19.1065 50.9207 19.6551 50.4925 19.9014L44.0465 23.624C43.9037 23.7051 43.7498 23.7443 43.5987 23.7443Z" fill="#C9C2BF"/>
    <path d="M35.3692 16.8419C35.2685 16.8419 35.1649 16.8251 35.0642 16.7887C34.5995 16.6208 34.3588 16.1058 34.5296 15.6411L37.0766 8.64654C37.2446 8.18191 37.7596 7.9412 38.2242 8.11194C38.6888 8.27988 38.9296 8.79488 38.7588 9.25954L36.2118 16.2541C36.0802 16.6152 35.7359 16.8419 35.3692 16.8419Z" fill="#C9C2BF"/>
    <path d="M19.9108 19.5683C19.6561 19.5683 19.4014 19.4591 19.2251 19.2492L10.3186 8.63593C9.99951 8.25807 10.0499 7.69268 10.4277 7.37361C10.8056 7.05454 11.371 7.10491 11.6901 7.48277L20.5966 18.0961C20.9156 18.4739 20.8653 19.0393 20.4874 19.3584C20.3195 19.4983 20.1152 19.5683 19.9108 19.5683Z" fill="#C9C2BF"/>
    <path d="M14.5426 28.8697C14.4922 28.8697 14.4391 28.8641 14.3859 28.8557L0.740935 26.4486C0.253914 26.3618 -0.0707541 25.8972 0.0132236 25.4102C0.10279 24.9232 0.567419 24.5985 1.05442 24.6853L14.6994 27.0924C15.1864 27.1792 15.511 27.6438 15.4271 28.1308C15.3459 28.5618 14.9681 28.8697 14.5426 28.8697Z" fill="#C9C2BF"/>
    <path d="M4.40724 46.371C4.09656 46.371 3.79707 46.2114 3.63196 45.9231C3.38565 45.4949 3.5312 44.9463 3.95943 44.7L15.9585 37.7726C16.3867 37.5263 16.9353 37.6718 17.1816 38.1C17.4279 38.5283 17.2824 39.0769 16.8541 39.3232L4.85508 46.2506C4.71513 46.3318 4.56118 46.371 4.40724 46.371Z" fill="#C9C2BF"/>
    <path d="M19.8941 59.3639C19.7934 59.3639 19.6898 59.3471 19.5891 59.3107C19.1244 59.1427 18.8837 58.6277 19.0545 58.1631L23.7931 45.1451C23.961 44.6805 24.476 44.4398 24.9407 44.6105C25.4053 44.7785 25.646 45.2935 25.4753 45.7581L20.7367 58.7761C20.6023 59.1371 20.258 59.3639 19.8941 59.3639Z" fill="#C9C2BF"/>
    <path d="M40.1076 59.364C39.741 59.364 39.3995 59.1373 39.2651 58.7734L34.5265 45.7554C34.3585 45.2908 34.5965 44.7758 35.0611 44.6078C35.5257 44.4399 36.0407 44.6778 36.2087 45.1424L40.9473 58.1604C41.1153 58.625 40.8774 59.14 40.4127 59.308C40.312 59.3472 40.2112 59.364 40.1076 59.364Z" fill="#C9C2BF"/>
    <path d="M55.5951 46.371C55.4439 46.371 55.29 46.3318 55.1472 46.2506L43.1482 39.3232C42.7199 39.0769 42.5716 38.5283 42.8207 38.1001C43.067 37.6718 43.6156 37.5235 44.0438 37.7726L56.0429 44.7C56.4711 44.9463 56.6195 45.4949 56.3704 45.9231C56.2052 46.2086 55.9029 46.371 55.5951 46.371Z" fill="#C9C2BF"/>
    <path d="M45.4596 28.8668C45.0342 28.8668 44.6563 28.5617 44.5779 28.1279C44.4911 27.6409 44.8186 27.1763 45.3056 27.0895L58.9477 24.6852C59.4347 24.5984 59.8993 24.9259 59.9861 25.4129C60.0728 25.8999 59.7454 26.3645 59.2584 26.4513L45.6134 28.8556C45.5631 28.864 45.51 28.8668 45.4596 28.8668Z" fill="#C9C2BF"/>
    <path d="M40.0912 19.5683C39.8869 19.5683 39.6826 19.4983 39.5147 19.3584C39.1368 19.0393 39.0864 18.4767 39.4055 18.0961L48.312 7.48277C48.6311 7.10492 49.1937 7.05453 49.5743 7.37361C49.9522 7.69269 50.0026 8.25531 49.6835 8.63593L40.777 19.2492C40.6006 19.4591 40.346 19.5683 40.0912 19.5683Z" fill="#C9C2BF"/>
</svg>
